<svg width="37" height="35" viewBox="0 0 37 35" fill="none" xmlns="http://www.w3.org/2000/svg">
<g id="Icon">
<path d="M8.16179 3.60619C5.80285 3.86983 3.91465 5.73163 3.64172 8.06518C2.90856 14.3337 2.90856 20.6663 3.64172 26.9348C3.91465 29.2684 5.80285 31.1302 8.16179 31.3938C14.2977 32.0796 20.6456 32.0796 26.7815 31.3938C29.1404 31.1302 31.0286 29.2684 31.3016 26.9348C31.8284 22.4307 31.9766 17.8935 31.7464 13.3708C31.7405 13.254 31.7841 13.1401 31.8668 13.0574L34.0079 10.9162C34.2558 10.6684 34.6792 10.8234 34.7055 11.1729C35.1096 16.5422 34.9986 21.9406 34.3725 27.294C33.9296 31.0804 30.8895 34.0458 27.1249 34.4665C20.7608 35.1778 14.1825 35.1778 7.81837 34.4665C4.05377 34.0458 1.01366 31.0804 0.570803 27.294C-0.190268 20.7868 -0.190268 14.2132 0.570803 7.70601C1.01366 3.9196 4.05377 0.954217 7.81837 0.533467C14.1825 -0.177822 20.7608 -0.177822 27.1249 0.533467C28.4508 0.681656 29.6869 1.1455 30.7512 1.84968C30.9606 1.98825 30.9814 2.28267 30.8038 2.46024L29.1489 4.11517C29.0135 4.25055 28.8036 4.27332 28.6348 4.1829C28.0713 3.88094 27.445 3.68034 26.7815 3.60619C20.6456 2.92041 14.2977 2.92041 8.16179 3.60619Z" fill="#3A3A3A"/>
<path d="M36.0853 5.19511C36.689 4.59139 36.689 3.61257 36.0853 3.00884C35.4815 2.40512 34.5027 2.40512 33.899 3.00884L16.441 20.4668L11.3504 15.3763C10.7467 14.7725 9.76788 14.7725 9.16416 15.3763C8.56044 15.98 8.56044 16.9588 9.16416 17.5625L15.3479 23.7462C15.9516 24.3499 16.9304 24.3499 17.5341 23.7462L36.0853 5.19511Z" fill="#3A3A3A"/>
</g>
</svg>
